<mxfile host="app.diagrams.net" modified="2023-07-19T20:01:16.599Z" agent="Mozilla/5.0 (Windows NT 10.0; Win64; x64) AppleWebKit/537.36 (KHTML, like Gecko) Chrome/114.0.0.0 Safari/537.36" etag="pTXfaXCWvWD9nZrhXsKh" version="21.6.2" type="github">
  <diagram name="Page-1" id="uUXrkuz20UkWe0C8BqDf">
    <mxGraphModel dx="1265" dy="1103" grid="1" gridSize="10" guides="1" tooltips="1" connect="1" arrows="1" fold="1" page="1" pageScale="1" pageWidth="827" pageHeight="1169" math="0" shadow="0">
      <root>
        <mxCell id="0" />
        <mxCell id="1" parent="0" />
        <mxCell id="HDqaOIfoiskNyrf9Dxmh-12" style="edgeStyle=orthogonalEdgeStyle;rounded=0;orthogonalLoop=1;jettySize=auto;html=1;entryX=0.406;entryY=0;entryDx=0;entryDy=0;entryPerimeter=0;fontSize=14;" edge="1" parent="1" source="HDqaOIfoiskNyrf9Dxmh-1" target="HDqaOIfoiskNyrf9Dxmh-9">
          <mxGeometry relative="1" as="geometry">
            <Array as="points">
              <mxPoint x="240" y="240" />
              <mxPoint x="160" y="240" />
            </Array>
          </mxGeometry>
        </mxCell>
        <mxCell id="HDqaOIfoiskNyrf9Dxmh-16" value="Enqueue" style="edgeLabel;html=1;align=center;verticalAlign=middle;resizable=0;points=[];fontStyle=1;fontSize=12;" vertex="1" connectable="0" parent="HDqaOIfoiskNyrf9Dxmh-12">
          <mxGeometry x="0.1176" y="-1" relative="1" as="geometry">
            <mxPoint as="offset" />
          </mxGeometry>
        </mxCell>
        <mxCell id="HDqaOIfoiskNyrf9Dxmh-13" style="edgeStyle=orthogonalEdgeStyle;rounded=0;orthogonalLoop=1;jettySize=auto;html=1;entryX=0.5;entryY=0;entryDx=0;entryDy=0;entryPerimeter=0;" edge="1" parent="1" source="HDqaOIfoiskNyrf9Dxmh-1" target="HDqaOIfoiskNyrf9Dxmh-8">
          <mxGeometry relative="1" as="geometry">
            <Array as="points">
              <mxPoint x="240" y="240" />
              <mxPoint x="320" y="240" />
            </Array>
          </mxGeometry>
        </mxCell>
        <mxCell id="HDqaOIfoiskNyrf9Dxmh-18" value="Read" style="edgeLabel;html=1;align=center;verticalAlign=middle;resizable=0;points=[];fontStyle=1;fontSize=12;" vertex="1" connectable="0" parent="HDqaOIfoiskNyrf9Dxmh-13">
          <mxGeometry x="0.0629" relative="1" as="geometry">
            <mxPoint x="-18" as="offset" />
          </mxGeometry>
        </mxCell>
        <mxCell id="HDqaOIfoiskNyrf9Dxmh-1" value="" style="rounded=1;whiteSpace=wrap;html=1;" vertex="1" parent="1">
          <mxGeometry x="150" y="110" width="190" height="100" as="geometry" />
        </mxCell>
        <mxCell id="HDqaOIfoiskNyrf9Dxmh-14" style="edgeStyle=orthogonalEdgeStyle;rounded=0;orthogonalLoop=1;jettySize=auto;html=1;" edge="1" parent="1" source="HDqaOIfoiskNyrf9Dxmh-2" target="HDqaOIfoiskNyrf9Dxmh-8">
          <mxGeometry relative="1" as="geometry" />
        </mxCell>
        <mxCell id="HDqaOIfoiskNyrf9Dxmh-19" value="CRUD" style="edgeLabel;html=1;align=center;verticalAlign=middle;resizable=0;points=[];fontSize=12;fontStyle=1" vertex="1" connectable="0" parent="HDqaOIfoiskNyrf9Dxmh-14">
          <mxGeometry x="0.0632" y="1" relative="1" as="geometry">
            <mxPoint as="offset" />
          </mxGeometry>
        </mxCell>
        <mxCell id="HDqaOIfoiskNyrf9Dxmh-15" style="edgeStyle=orthogonalEdgeStyle;rounded=0;orthogonalLoop=1;jettySize=auto;html=1;" edge="1" parent="1" source="HDqaOIfoiskNyrf9Dxmh-2" target="HDqaOIfoiskNyrf9Dxmh-9">
          <mxGeometry relative="1" as="geometry" />
        </mxCell>
        <mxCell id="HDqaOIfoiskNyrf9Dxmh-17" value="Dequeue" style="edgeLabel;html=1;align=center;verticalAlign=middle;resizable=0;points=[];fontSize=12;fontStyle=1" vertex="1" connectable="0" parent="HDqaOIfoiskNyrf9Dxmh-15">
          <mxGeometry x="0.1803" relative="1" as="geometry">
            <mxPoint as="offset" />
          </mxGeometry>
        </mxCell>
        <mxCell id="HDqaOIfoiskNyrf9Dxmh-2" value="Worker Role" style="rounded=1;whiteSpace=wrap;html=1;" vertex="1" parent="1">
          <mxGeometry x="150" y="440" width="190" height="100" as="geometry" />
        </mxCell>
        <mxCell id="HDqaOIfoiskNyrf9Dxmh-3" value="" style="rounded=1;whiteSpace=wrap;html=1;" vertex="1" parent="1">
          <mxGeometry x="430" y="110" width="180" height="270" as="geometry" />
        </mxCell>
        <mxCell id="HDqaOIfoiskNyrf9Dxmh-8" value="Azure Table" style="verticalLabelPosition=bottom;html=1;verticalAlign=top;align=center;strokeColor=none;fillColor=#00BEF2;shape=mxgraph.azure.storage;pointerEvents=1;" vertex="1" parent="1">
          <mxGeometry x="280" y="295" width="80" height="55" as="geometry" />
        </mxCell>
        <mxCell id="HDqaOIfoiskNyrf9Dxmh-9" value="Azure Queue" style="image;aspect=fixed;html=1;points=[];align=center;fontSize=12;image=img/lib/azure2/general/Storage_Queue.svg;" vertex="1" parent="1">
          <mxGeometry x="130" y="290" width="73.85" height="60" as="geometry" />
        </mxCell>
        <mxCell id="HDqaOIfoiskNyrf9Dxmh-21" value="Web service" style="rounded=1;whiteSpace=wrap;html=1;" vertex="1" parent="1">
          <mxGeometry x="185" y="130" width="120" height="60" as="geometry" />
        </mxCell>
        <mxCell id="HDqaOIfoiskNyrf9Dxmh-25" value="Worker service" style="rounded=1;whiteSpace=wrap;html=1;" vertex="1" parent="1">
          <mxGeometry x="185" y="460" width="120" height="60" as="geometry" />
        </mxCell>
        <mxCell id="HDqaOIfoiskNyrf9Dxmh-34" style="edgeStyle=orthogonalEdgeStyle;rounded=0;orthogonalLoop=1;jettySize=auto;html=1;entryX=0.713;entryY=-0.036;entryDx=0;entryDy=0;entryPerimeter=0;" edge="1" parent="1" source="HDqaOIfoiskNyrf9Dxmh-26" target="HDqaOIfoiskNyrf9Dxmh-8">
          <mxGeometry relative="1" as="geometry">
            <Array as="points">
              <mxPoint x="380" y="160" />
              <mxPoint x="380" y="230" />
              <mxPoint x="337" y="230" />
            </Array>
          </mxGeometry>
        </mxCell>
        <mxCell id="HDqaOIfoiskNyrf9Dxmh-35" value="Read" style="edgeLabel;html=1;align=center;verticalAlign=middle;resizable=0;points=[];" vertex="1" connectable="0" parent="HDqaOIfoiskNyrf9Dxmh-34">
          <mxGeometry x="-0.086" y="1" relative="1" as="geometry">
            <mxPoint as="offset" />
          </mxGeometry>
        </mxCell>
        <mxCell id="HDqaOIfoiskNyrf9Dxmh-26" value="Maintanence service" style="rounded=1;whiteSpace=wrap;html=1;" vertex="1" parent="1">
          <mxGeometry x="460" y="130" width="120" height="60" as="geometry" />
        </mxCell>
        <mxCell id="HDqaOIfoiskNyrf9Dxmh-27" value="Worker VMSS" style="text;html=1;strokeColor=none;fillColor=none;align=center;verticalAlign=middle;whiteSpace=wrap;rounded=0;" vertex="1" parent="1">
          <mxGeometry x="196.93" y="540" width="96.15" height="30" as="geometry" />
        </mxCell>
        <mxCell id="HDqaOIfoiskNyrf9Dxmh-29" value="Repair VMSS" style="text;html=1;strokeColor=none;fillColor=none;align=center;verticalAlign=middle;whiteSpace=wrap;rounded=0;" vertex="1" parent="1">
          <mxGeometry x="471.92" y="390" width="96.15" height="30" as="geometry" />
        </mxCell>
        <mxCell id="HDqaOIfoiskNyrf9Dxmh-30" value="Web VMSS" style="text;html=1;strokeColor=none;fillColor=none;align=center;verticalAlign=middle;whiteSpace=wrap;rounded=0;" vertex="1" parent="1">
          <mxGeometry x="203.85" y="80" width="96.15" height="30" as="geometry" />
        </mxCell>
        <mxCell id="HDqaOIfoiskNyrf9Dxmh-36" style="edgeStyle=orthogonalEdgeStyle;rounded=0;orthogonalLoop=1;jettySize=auto;html=1;entryX=1;entryY=0.5;entryDx=0;entryDy=0;entryPerimeter=0;" edge="1" parent="1" source="HDqaOIfoiskNyrf9Dxmh-33" target="HDqaOIfoiskNyrf9Dxmh-8">
          <mxGeometry relative="1" as="geometry" />
        </mxCell>
        <mxCell id="HDqaOIfoiskNyrf9Dxmh-37" value="CRUD" style="edgeLabel;html=1;align=center;verticalAlign=middle;resizable=0;points=[];" vertex="1" connectable="0" parent="HDqaOIfoiskNyrf9Dxmh-36">
          <mxGeometry x="0.0113" y="-4" relative="1" as="geometry">
            <mxPoint as="offset" />
          </mxGeometry>
        </mxCell>
        <mxCell id="HDqaOIfoiskNyrf9Dxmh-33" value="LoadShedding service" style="rounded=1;whiteSpace=wrap;html=1;" vertex="1" parent="1">
          <mxGeometry x="460" y="260" width="120" height="60" as="geometry" />
        </mxCell>
      </root>
    </mxGraphModel>
  </diagram>
</mxfile>
